<mxfile host="Electron" modified="2024-07-05T00:08:05.960Z" agent="Mozilla/5.0 (X11; Linux x86_64) AppleWebKit/537.36 (KHTML, like Gecko) draw.io/24.5.3 Chrome/124.0.6367.207 Electron/30.0.6 Safari/537.36" etag="TfJF74RZRFYHGlpK5mZN" version="24.5.3" type="device">
  <diagram name="Page-1" id="ZcRAXSWJTWcisyccbfvs">
    <mxGraphModel dx="952" dy="-214" grid="1" gridSize="5" guides="1" tooltips="1" connect="1" arrows="1" fold="1" page="0" pageScale="1" pageWidth="827" pageHeight="1169" math="0" shadow="0">
      <root>
        <mxCell id="0" />
        <mxCell id="1" parent="0" />
        <mxCell id="aZooovynMMBxmRVDPCQJ-146" value="" style="rounded=0;whiteSpace=wrap;html=1;strokeColor=none;fillColor=none;" parent="1" vertex="1">
          <mxGeometry x="90" y="1215" width="200" height="200" as="geometry" />
        </mxCell>
        <mxCell id="bXdlv_uk7NeRqHD_MFzQ-21" value="" style="verticalLabelPosition=bottom;verticalAlign=top;html=1;shape=mxgraph.basic.acute_triangle;dx=0.5;fillColor=none;strokeWidth=6;strokeColor=#FFFFFF;" parent="1" vertex="1">
          <mxGeometry x="120" y="1320" width="100" height="80" as="geometry" />
        </mxCell>
        <mxCell id="bXdlv_uk7NeRqHD_MFzQ-31" value="" style="group;rotation=45;" parent="1" vertex="1" connectable="0">
          <mxGeometry x="140" y="1225" width="140" height="143" as="geometry" />
        </mxCell>
        <mxCell id="bXdlv_uk7NeRqHD_MFzQ-25" value="" style="shape=or;whiteSpace=wrap;html=1;rotation=135;strokeColor=#FFFFFF;fillColor=none;strokeWidth=6;" parent="bXdlv_uk7NeRqHD_MFzQ-31" vertex="1">
          <mxGeometry x="22" y="3" width="60" height="140" as="geometry" />
        </mxCell>
        <mxCell id="bXdlv_uk7NeRqHD_MFzQ-26" value="" style="endArrow=none;html=1;rounded=0;exitX=0;exitY=0.5;exitDx=0;exitDy=0;exitPerimeter=0;strokeWidth=6;strokeColor=#FFFFFF;" parent="bXdlv_uk7NeRqHD_MFzQ-31" source="bXdlv_uk7NeRqHD_MFzQ-25" edge="1">
          <mxGeometry width="50" height="50" relative="1" as="geometry">
            <mxPoint x="28" y="20" as="sourcePoint" />
            <mxPoint x="102" y="23" as="targetPoint" />
          </mxGeometry>
        </mxCell>
        <mxCell id="bXdlv_uk7NeRqHD_MFzQ-27" value="" style="endArrow=none;html=1;rounded=0;exitX=0.003;exitY=0.141;exitDx=0;exitDy=0;exitPerimeter=0;strokeWidth=6;strokeColor=#FFFFFF;" parent="bXdlv_uk7NeRqHD_MFzQ-31" source="bXdlv_uk7NeRqHD_MFzQ-25" edge="1">
          <mxGeometry width="50" height="50" relative="1" as="geometry">
            <mxPoint x="73" y="51" as="sourcePoint" />
            <mxPoint x="102" y="23" as="targetPoint" />
          </mxGeometry>
        </mxCell>
        <mxCell id="bXdlv_uk7NeRqHD_MFzQ-28" value="" style="endArrow=none;html=1;rounded=0;entryX=-0.001;entryY=0.857;entryDx=0;entryDy=0;entryPerimeter=0;strokeWidth=6;strokeColor=#FFFFFF;" parent="bXdlv_uk7NeRqHD_MFzQ-31" target="bXdlv_uk7NeRqHD_MFzQ-25" edge="1">
          <mxGeometry width="50" height="50" relative="1" as="geometry">
            <mxPoint x="102" y="23" as="sourcePoint" />
            <mxPoint x="56" y="-37" as="targetPoint" />
          </mxGeometry>
        </mxCell>
        <mxCell id="bXdlv_uk7NeRqHD_MFzQ-29" value="" style="ellipse;whiteSpace=wrap;html=1;fillColor=#FFFFFF;strokeWidth=4;strokeColor=#FFFFFF;rotation=45;" parent="bXdlv_uk7NeRqHD_MFzQ-31" vertex="1">
          <mxGeometry x="96" y="19.05" width="10" height="10" as="geometry" />
        </mxCell>
        <mxCell id="bXdlv_uk7NeRqHD_MFzQ-54" value="" style="shape=or;whiteSpace=wrap;html=1;rotation=135;strokeColor=#B82BFF;fillColor=none;strokeWidth=6;" parent="bXdlv_uk7NeRqHD_MFzQ-31" vertex="1">
          <mxGeometry x="34.93" y="21.7" width="30.88" height="100.6" as="geometry" />
        </mxCell>
        <mxCell id="bXdlv_uk7NeRqHD_MFzQ-38" value="" style="ellipse;whiteSpace=wrap;html=1;strokeColor=none;fillColor=#FFFFFF;" parent="1" vertex="1">
          <mxGeometry x="165" y="1315" width="10" height="10" as="geometry" />
        </mxCell>
        <mxCell id="bXdlv_uk7NeRqHD_MFzQ-39" value="" style="ellipse;whiteSpace=wrap;html=1;fillColor=none;strokeColor=#229DF0;strokeWidth=6;" parent="1" vertex="1">
          <mxGeometry x="145" y="1370" width="20" height="20" as="geometry" />
        </mxCell>
        <mxCell id="bXdlv_uk7NeRqHD_MFzQ-40" value="" style="ellipse;whiteSpace=wrap;html=1;fillColor=none;strokeColor=#547EF0;strokeWidth=4;" parent="1" vertex="1">
          <mxGeometry x="192" y="1383" width="10" height="10" as="geometry" />
        </mxCell>
        <mxCell id="bXdlv_uk7NeRqHD_MFzQ-41" value="" style="ellipse;whiteSpace=wrap;html=1;fillColor=none;strokeColor=#229DF0;strokeWidth=6;" parent="1" vertex="1">
          <mxGeometry x="160" y="1345" width="20" height="20" as="geometry" />
        </mxCell>
        <mxCell id="bXdlv_uk7NeRqHD_MFzQ-61" value="" style="ellipse;whiteSpace=wrap;html=1;fillColor=none;strokeColor=#547EF0;strokeWidth=4;" parent="1" vertex="1">
          <mxGeometry x="172" y="1383" width="10" height="10" as="geometry" />
        </mxCell>
        <mxCell id="bXdlv_uk7NeRqHD_MFzQ-63" value="" style="ellipse;whiteSpace=wrap;html=1;fillColor=none;strokeColor=#547EF0;strokeWidth=4;" parent="1" vertex="1">
          <mxGeometry x="182" y="1367" width="10" height="10" as="geometry" />
        </mxCell>
      </root>
    </mxGraphModel>
  </diagram>
</mxfile>
